<svg version="1.1" id="Layer_1" xmlns="http://www.w3.org/2000/svg" xmlns:xlink="http://www.w3.org/1999/xlink" x="0px" y="0px"
	 width="100%" viewBox="0 0 512 512" enable-background="new 0 0 512 512" xml:space="preserve">
<path fill="#FFFFFF" opacity="1.000000" stroke="none" 
	d="
M211.000000,513.000000 
	C141.031525,513.000000 71.063057,513.000000 1.047295,513.000000 
	C1.047295,342.441742 1.047295,171.883484 1.047295,1.000000 
	C82.687813,1.000000 164.376053,1.000000 246.410309,1.373638 
	C234.211349,4.030133 224.265396,10.808633 216.931976,20.816553 
	C209.870148,30.453863 207.045807,41.514034 207.817657,53.797543 
	C208.605881,66.341789 213.553772,76.854813 222.054871,85.262253 
	C235.293945,98.355484 251.941071,102.251205 269.779083,97.804680 
	C286.072784,93.743103 297.329071,83.025406 303.298187,67.207581 
	C307.211395,56.837833 307.307526,46.364338 304.099915,35.635372 
	C300.457611,23.452265 293.503235,14.067771 282.439423,7.950606 
	C277.516815,5.228877 272.159821,3.292718 267.000000,1.000000 
	C348.963074,1.000000 430.926147,1.000000 512.944580,1.000000 
	C512.944580,171.552887 512.944580,342.105774 512.944580,513.000000 
	C443.312286,513.000000 373.623993,513.000000 303.575378,512.638977 
	C315.029907,509.391327 322.976715,498.698822 322.982880,485.037079 
	C323.018158,406.870422 323.000000,328.703735 323.000000,250.537079 
	C323.000000,248.827972 323.000000,247.118866 323.000000,244.489487 
	C324.142151,245.757828 324.706055,246.146652 324.941528,246.680359 
	C330.312256,258.853088 336.131927,270.857697 340.845551,283.281555 
	C345.137451,294.593811 355.083221,302.958588 369.288696,301.129333 
	C382.828339,299.385895 393.335846,284.594208 389.176758,271.728699 
	C386.527466,263.533447 383.286804,255.501190 379.860321,247.591217 
	C372.466217,230.521912 364.730927,213.600800 357.229095,196.577682 
	C348.761597,177.363190 340.959503,157.830338 331.798309,138.955139 
	C325.238220,125.439125 313.617859,118.052582 298.128265,118.017700 
	C270.295074,117.955025 242.461060,117.895035 214.628571,118.047279 
	C201.998322,118.116371 191.127579,123.572227 185.277176,134.320740 
	C175.868362,151.606842 168.155655,169.834473 160.083847,187.824722 
	C152.344604,205.073761 144.965729,222.487000 137.611633,239.905396 
	C133.195999,250.363983 129.019135,260.927551 124.941643,271.523468 
	C121.257629,281.096893 127.320000,295.838593 140.714066,300.251831 
	C151.470749,303.796112 164.194199,300.345978 169.926270,289.455017 
	C174.840836,280.117340 178.678772,270.213318 182.998810,260.562378 
	C185.303757,255.413177 187.621262,250.269592 189.933121,245.123474 
	C190.288742,245.245865 190.644379,245.368256 191.000000,245.490662 
	C191.000000,247.254074 191.000000,249.017502 191.000000,250.780914 
	C191.000000,328.780914 190.982437,406.780914 191.033569,484.780884 
	C191.037628,490.975525 192.328064,496.877716 195.972504,502.168732 
	C199.729538,507.623230 205.364746,510.262970 211.000000,513.000000 
z"/>
<path fill="#000000" opacity="1.000000" stroke="none" 
	d="
M211.464645,513.000000 
	C205.364746,510.262970 199.729538,507.623230 195.972504,502.168732 
	C192.328064,496.877716 191.037628,490.975525 191.033569,484.780884 
	C190.982437,406.780914 191.000000,328.780914 191.000000,250.780914 
	C191.000000,249.017502 191.000000,247.254074 191.000000,245.490662 
	C190.644379,245.368256 190.288742,245.245865 189.933121,245.123474 
	C187.621262,250.269592 185.303757,255.413177 182.998810,260.562378 
	C178.678772,270.213318 174.840836,280.117340 169.926270,289.455017 
	C164.194199,300.345978 151.470749,303.796112 140.714066,300.251831 
	C127.320000,295.838593 121.257629,281.096893 124.941643,271.523468 
	C129.019135,260.927551 133.195999,250.363983 137.611633,239.905396 
	C144.965729,222.487000 152.344604,205.073761 160.083847,187.824722 
	C168.155655,169.834473 175.868362,151.606842 185.277176,134.320740 
	C191.127579,123.572227 201.998322,118.116371 214.628571,118.047279 
	C242.461060,117.895035 270.295074,117.955025 298.128265,118.017700 
	C313.617859,118.052582 325.238220,125.439125 331.798309,138.955139 
	C340.959503,157.830338 348.761597,177.363190 357.229095,196.577682 
	C364.730927,213.600800 372.466217,230.521912 379.860321,247.591217 
	C383.286804,255.501190 386.527466,263.533447 389.176758,271.728699 
	C393.335846,284.594208 382.828339,299.385895 369.288696,301.129333 
	C355.083221,302.958588 345.137451,294.593811 340.845551,283.281555 
	C336.131927,270.857697 330.312256,258.853088 324.941528,246.680359 
	C324.706055,246.146652 324.142151,245.757828 323.000000,244.489487 
	C323.000000,247.118866 323.000000,248.827972 323.000000,250.537079 
	C323.000000,328.703735 323.018158,406.870422 322.982880,485.037079 
	C322.976715,498.698822 315.029907,509.391327 303.107544,512.638977 
	C298.643097,513.000000 294.286194,513.000000 289.349670,512.632446 
	C278.841064,511.187103 268.932465,498.187561 268.950684,488.515259 
	C269.052979,434.215820 269.000000,379.916107 269.000000,325.616486 
	C269.000000,323.841492 269.000000,322.066498 269.000000,320.245850 
	C260.769287,320.245850 253.034149,320.245850 245.000000,320.245850 
	C245.000000,322.287659 245.000000,324.087372 245.000000,325.887085 
	C245.000000,379.853577 245.005661,433.820068 244.974976,487.786560 
	C244.973969,489.559540 244.830444,491.394196 244.367416,493.095062 
	C241.595139,503.278656 234.721588,509.541626 225.000000,513.000000 
	C220.643097,513.000000 216.286194,513.000000 211.464645,513.000000 
z"/>
<path fill="#000000" opacity="1.000000" stroke="none" 
	d="
M266.531586,1.000000 
	C272.159821,3.292718 277.516815,5.228877 282.439423,7.950606 
	C293.503235,14.067771 300.457611,23.452265 304.099915,35.635372 
	C307.307526,46.364338 307.211395,56.837833 303.298187,67.207581 
	C297.329071,83.025406 286.072784,93.743103 269.779083,97.804680 
	C251.941071,102.251205 235.293945,98.355484 222.054871,85.262253 
	C213.553772,76.854813 208.605881,66.341789 207.817657,53.797543 
	C207.045807,41.514034 209.870148,30.453863 216.931976,20.816553 
	C224.265396,10.808633 234.211349,4.030133 246.878174,1.373638 
	C253.354385,1.000000 259.708771,1.000000 266.531586,1.000000 
z"/>
<path fill="#FFFFFF" opacity="1.000000" stroke="none" 
	d="
M225.468658,513.000000 
	C234.721588,509.541626 241.595139,503.278656 244.367416,493.095062 
	C244.830444,491.394196 244.973969,489.559540 244.974976,487.786560 
	C245.005661,433.820068 245.000000,379.853577 245.000000,325.887085 
	C245.000000,324.087372 245.000000,322.287659 245.000000,320.245850 
	C253.034149,320.245850 260.769287,320.245850 269.000000,320.245850 
	C269.000000,322.066498 269.000000,323.841492 269.000000,325.616486 
	C269.000000,379.916107 269.052979,434.215820 268.950684,488.515259 
	C268.932465,498.187561 278.841064,511.187103 288.885010,512.632446 
	C267.979095,513.000000 246.958206,513.000000 225.468658,513.000000 
z"/>
</svg>